<?xml version="1.0" standalone="no"?>
<!DOCTYPE svg PUBLIC "-//W3C//DTD SVG 20010904//EN"
 "http://www.w3.org/TR/2001/REC-SVG-20010904/DTD/svg10.dtd">
<svg version="1.0" xmlns="http://www.w3.org/2000/svg"
 width="93.000000pt" height="475.000000pt" viewBox="0 0 93.000000 475.000000"
 preserveAspectRatio="xMidYMid meet">
<metadata>
Created by potrace 1.16, written by Peter Selinger 2001-2019
</metadata>
<g transform="translate(0.000000,475.000000) scale(0.100000,-0.100000)"
fill="#000000" stroke="none">
<path d="M503 4165 c-13 -9 -23 -27 -23 -41 0 -14 -7 -27 -16 -31 -21 -8 -78
12 -127 43 -34 22 -38 23 -44 8 -4 -10 1 -30 10 -46 13 -22 13 -28 2 -28 -19
0 -7 -38 16 -50 10 -6 16 -16 13 -24 -3 -7 6 -23 20 -34 14 -11 26 -22 26 -26
0 -3 -18 -11 -40 -17 -61 -18 -33 -34 58 -34 89 0 139 21 190 79 29 33 52 89
52 127 0 9 3 19 8 23 4 4 7 18 7 30 1 18 -5 23 -25 24 -14 1 -43 4 -65 7 -28
4 -46 1 -62 -10z"/>
<path d="M363 3048 c-40 -19 -55 -70 -51 -169 3 -81 5 -91 31 -116 27 -27 31
-28 137 -28 101 0 111 2 132 23 21 21 23 31 23 138 0 114 0 116 -28 140 -26
22 -36 24 -125 23 -53 0 -107 -5 -119 -11z m233 -39 c16 -18 19 -37 19 -116 0
-125 -8 -133 -139 -133 -130 0 -131 1 -131 135 0 134 1 135 135 135 86 0 99
-2 116 -21z"/>
<path d="M445 2970 c-33 -13 -49 -39 -48 -76 1 -40 17 -62 52 -75 91 -35 157
102 70 146 -31 17 -45 18 -74 5z"/>
<path d="M436 1897 c-10 -8 -21 -31 -25 -53 -5 -33 -10 -39 -34 -42 -21 -3
-27 -9 -27 -27 0 -18 6 -24 28 -27 26 -3 27 -5 30 -70 3 -68 3 -68 32 -68 29
0 29 0 32 68 3 65 4 67 31 70 15 2 27 7 27 12 0 5 3 15 6 23 4 12 -3 16 -28
19 -28 2 -33 7 -33 28 0 21 5 26 33 28 26 3 32 7 32 28 0 22 -4 24 -43 24 -24
0 -51 -6 -61 -13z"/>
<path d="M317 779 c-29 -17 -47 -72 -47 -142 0 -74 14 -123 40 -137 21 -11
280 -13 296 -2 25 16 34 56 34 147 0 89 -2 98 -25 120 -23 24 -29 25 -152 25
-72 0 -136 -5 -146 -11z m58 -99 c74 -67 95 -66 170 2 69 63 77 57 73 -53 -4
-109 -5 -109 -156 -109 -160 0 -162 1 -162 115 0 71 4 95 17 95 1 0 28 -22 58
-50z"/>
</g>
</svg>
